<?xml version="1.0" encoding="utf-8"?>
<!-- Generator: Adobe Illustrator 25.2.0, SVG Export Plug-In . SVG Version: 6.00 Build 0)  -->
<svg version="1.1" id="圖層_1" xmlns="http://www.w3.org/2000/svg" xmlns:xlink="http://www.w3.org/1999/xlink" x="0px" y="0px"
	 viewBox="0 0 2387.76 1082.97" style="enable-background:new 0 0 2387.76 1082.97;" xml:space="preserve">
<style type="text/css">
	.st0{fill:#7B54A0;}
	.st1{fill:#040000;}
</style>
<g>
	<g>
		<g>
			<path class="st0" d="M364.44,515.25c0-11.72-9.5-21.23-21.23-21.23c-11.72,0-21.23,9.5-21.23,21.23
				c0,11.72,9.51,21.23,21.23,21.23C354.94,536.48,364.44,526.97,364.44,515.25z"/>
			<path class="st0" d="M524.87,472.19c1.76-23.59,5.04-35.65,27.59-45.68c-9.27-29.67-19.32-56.92-48.27-64.86
				c-40.73-11.18-99.57-4.65-142.42,15.49c-70.06,32.92-97.41,109.33-82.11,163.43c7.43-41.92,30.59-85.26,81.74-109.43
				c51.84-24.49,117.09-25.66,164.27-11.76c-17.57,7-42.88,23.1-50.29,55.43c-5.48,23.9-2.2,43.96-12.16,64.15
				c-10.35,20.97-35.4,24.2-55.08,20.32c17.93,18.78,68.04,25.57,93.65-0.04c18.57-18.57,20.68-44.84,21.95-68.28
				c91.86,19,90.62,120.96,50.68,220.99c-13.67-36.85-50.35-77.32-100.92-77.32c-42.8,0-80.62,14.38-134.52,92.13h53.13
				c14.87,0,23.14-5.66,28.43-13.93c19.61-30.61,38.69-43.56,68.72-43.56c34.97,0,58.16,23.39,75.69,57.49h3.29h10.48h27.01
				c15.57,0,24.81-8.39,28.97-19.78c6.59-18.05,10-43.07,12.14-61.79c2.17-18.98,12.77-21.79,23.82-24.17
				C657.78,514.12,582.79,477.2,524.87,472.19z"/>
			<path class="st0" d="M269.39,575.61c-25.8,0-45.2-21.76-45.2-48.26c0-39.95,25.49-59.38,42.25-85.58
				c8.2-12.83,11.86-26.74,5.82-39.34c-8.51-17.76-36.73-25.62-60.24-24.29c18.74,48.7-30.39,74.44-30.39,139.15
				c0,73.45,67.39,94.23,109.13,72.53c9.33,42.44-59.85,113.76-84.61,136.93h59.13c13.89,0,24.31-6.81,30.22-16.09
				c45.83-71.95,47.34-112.21,17.7-158.63C305.25,564.69,290.16,575.61,269.39,575.61z"/>
		</g>
		<g>
			<g>
				<path class="st1" d="M978.88,556.71c7.19-3.47,12.65-9.51,12.65-16.34v-32.6c1.5,3.23,3.43,6.38,5.5,8.75
					c3.3,3.3,11.74,4.4,23.85,4.4c11.37,0,20.55-6.97,20.55-18.34v-46.96c0-11.37-6.97-18.34-18.34-18.34c-2.12,0-5.74,0-9.92,0
					c6.17-1.95,12.59-4.82,14.69-7.7c3.67-5.5,6.97-22.75,6.97-33.39c0-9.54-5.5-15.04-14.68-15.04h-28.8
					c-0.96-6.33-13.51-8.07-25.5-8.07v133.49c-2.61-4.81-6.5-10.5-11.74-16.46c-7.7-8.81-11.37-11.74-15.78-11.74
					c-4.03,0-12.84,4.03-18.34,6.97c2.1,2.56,4.18,5.33,6.23,8.15c-10.12,3.66-19.92,6.43-28.6,8.09v-26.14h37.79h15.41h7.71v-82.55
					c0-6.97-10.64-8.81-23.11-8.81v8.44h-21.48c5.18-1.49,9.46-3.02,10.84-4.4c4.4-3.3,8.8-13.94,8.8-19.08
					c0-4.4-15.41-9.91-23.85-9.91c0,4.77-1.47,11.01-3.67,16.14c-3.02,6.94-6.03,13.02-9.05,17.24h-2.03
					c-0.4-6.64-10.81-8.44-23.04-8.44v119.09c-3.89-0.12-7.36-0.31-10.5-0.63c4.38-15.48,6.47-31.85,6.47-37.74
					c0-5.14-6.97-8.07-24.21-11.01c0,2.2,0,4.77-0.37,6.97c-1.1,5.87-2.2,6.24-7.71,8.07c-4.64,1.48-9.97,2.68-15.03,3.68
					c9.48-8.95,21.48-20.5,35.57-33.03c8.44-7.34,9.17-8.07,9.17-12.11c0-7.71-7.34-25.32-11.37-25.32c-1.84,0-4.4,0.73-6.6,2.2
					c-4.66,2.8-9.77,5.57-13.7,7.92c13-14.63,23.61-32.06,23.61-37.64c0-5.14-9.91-12.47-23.11-15.41
					c-1.1,4.77-2.57,7.71-5.14,11.37c-16.88,26.05-28.98,41.46-42.56,54.67c-4.4,4.4-8.81,7.34-15.78,10.64
					c5.14,12.47,12.47,19.45,20.55,19.45c5.5,0,12.84-6.24,32.65-27.52c5.08-1.42,10.71-2.47,16.24-3.15
					c-6.45,6.1-14.24,13.54-23.21,21.5c-16.88,15.04-29.72,27.88-29.72,32.29c0,6.24,12.84,19.44,17.98,19.44
					c4.03,0,14.67-1.83,19.81-3.67c7.82-2.82,10.32-5.14,14.75-12.35c-7.04,21.14-10.57,28.21-25.03,35.1
					c-7.7,3.67-19.81,8.07-35.59,11.01c3.3,14.68,10.64,27.15,18.34,27.15c11.01,0,41.46-13.58,51.73-25.68
					c3.1-3.64,5.79-8.72,8.09-14.46c1.86,9.94,6.37,17.4,15.75,17.4c1.07,0,2.34-0.09,3.72-0.23c-1.59,0.8-3.16,1.78-4.82,3.16
					c-19.08,16.14-48.06,34.49-67.87,46.23c-8.81,5.5-25.32,11.37-35.59,13.21c2.57,14.68,12.47,26.78,21.65,26.78
					c6.97,0,26.78-10.64,43.29-23.11c4.45-3.29,9.01-6.53,13.59-9.72c-7.75,8.88-9.56,15.41-9.56,24.03v79.61
					c-16.53-0.01-26-0.2-41.83-3.3c0,23.85,3.3,36.69,21.28,36.69c30.45,0,55.77-4.04,88.42-13.58c10.27-3.3,15.41-5.5,18.34-8.44
					c2.87-2.87,3.86-5.51,4.21-12.72c18.05,24.72,26.61,34.73,47.53,34.73c13.58,0,30.45-3.3,45.13-11.01
					c6.6-2.93,10.27-8.07,10.27-13.94c0-6.24-4.4-16.51-10.27-25.68c-2.57,3.67-7.34,7.71-13.58,11.01
					c-13.94,7.7-23.85,10.64-34.12,10.64c-3.77,0-7.95-3.97-14.17-10.78c5.98,2.52,12.57,4.17,16.01,4.17
					c15.78,0,37.79-21.28,37.79-30.45c0-5.14-6.24-11.01-20.18-18.71c-1.91,4.33-4.78,9-8.07,13.52v-41.77
					c0-8.62-1.8-15.16-9.56-24.03c4.58,3.2,9.15,6.43,13.59,9.72c16.51,12.11,36.32,23.11,43.29,23.11
					c9.17,0,19.08-12.11,21.65-26.78c-12.11-2.2-25.32-6.97-35.59-13.21C1010.32,577.06,994.63,567.39,978.88,556.71z
					 M1013.91,490.84c0,4.04-1.47,5.5-5.5,5.5h-16.88v-35.59h16.88c4.03,0,5.5,1.47,5.5,5.5V490.84z M1007.67,410.13
					c0,3.3-0.73,8.81-1.83,12.11c-2.24,6.71-3.94,10.92-6.04,15.04c-3,0-5.82,0-8.27,0v-32.65h10.64
					C1006.2,404.62,1007.67,406.09,1007.67,410.13z M895.04,451.95v-10.27h40.36v10.27H895.04z M935.4,424.07h-40.36v-9.54h40.36
					V424.07z M916.68,522.39c6.6-2.2,11.74-4.77,14.31-6.97c1.82-1.62,2.94-5.39,3.24-10.37c1.44,2.19,2.82,4.32,4.1,6.34
					c4.04,6.24,8.07,13.58,10.28,19.81c6.77-2.26,13.25-5.07,17.24-7.93v24.35c-5.88-4.24-11.44-8.45-16.14-12.39
					c-4.4-3.67-8.07-5.14-13.57-5.14h-47.51C898.17,528.09,909.15,525.05,916.68,522.39z M866.79,635.4v-11.74h88.05v11.74H866.79z
					 M954.84,605.31h-88.05V594.3h88.05V605.31z M892.1,556.15c2.34-2.01,4.6-4.39,6.78-6.89c-0.53,5.23-0.91,10.83-0.91,16.79v5.5
					h-26.36C878.9,566.42,885.85,561.31,892.1,556.15z M868.62,690.19v-30.94h24.21c9.16,5.12,16.55,9.88,24.77,18.87
					C898.96,684.13,883.27,688.05,868.62,690.19z M957.77,677.22c-2.2,0-5.87-1.47-14.31-9.17c-4.77-4.4-13.21-5.87-33.75-8.8h70.77
					C972.36,669.15,962.83,677.22,957.77,677.22z M923.66,571.56v-5.14c0-6.16-0.38-11.87-0.91-17.17c2.18,2.5,4.44,4.89,6.78,6.9
					c6.25,5.16,13.21,10.27,20.49,15.41H923.66z"/>
			</g>
			<g>
				<path class="st1" d="M1390.94,647.87c-27.88-49.53-40.72-91.72-61.64-119.24c-4.77-6.6-17.61-10.27-40.36-13.94h83.28
					c10.27,0,14.68-13.21,14.68-32.29h-116.3v-17.61h65.67c9.17,0,14.67-12.11,14.67-29.35h-80.35v-17.61h84.02
					c9.91,0,14.68-11.74,14.68-31.55h-98.69v-19.44c0-6.97-15.41-8.81-35.22-8.81v28.25h-98.69c0,19.81,4.77,31.55,14.67,31.55
					h84.02v17.61h-80.35c0,17.24,5.5,29.35,14.68,29.35h65.67v17.61h-116.3c0,19.08,4.4,32.29,14.68,32.29h83.28
					c-22.75,3.3-35.96,7.34-40.72,13.94c-20.55,27.52-33.76,70.08-61.27,119.24c-7.34,13.21-16.14,23.11-23.48,26.78
					c6.97,13.21,22.75,20.91,31.92,20.91c9.54,0,15.04-7.34,25.68-31.19c14.49-32.03,24.09-53.05,33.42-72.28h5.83
					c4.04,0,5.5,1.47,5.5,5.5v40.72c0,8.07-6.97,16.88-29.72,44.03c-8.44,10.27-17.61,17.98-24.21,20.55
					c6.97,11.37,16.88,19.45,25.32,19.45c7.71,0,15.04-5.14,26.05-18.34c30.45-35.59,34.12-39.99,34.12-60.17v-59.8
					c0-13.21-4.4-18.34-15.04-18.34c-5.09,0-14.31,5.52-20.5,11.53c5.11-10.16,10.47-20.5,16.83-32.44
					c6.6-12.11,18.71-22.01,30.08-30.09h32.29c11.37,8.07,23.48,17.98,30.09,30.09c0.61,1.14,1.18,2.22,1.77,3.34
					c-7.57,4.49-14.48,8.47-18.65,10.97c-7.04,4.18-11.07,10.47-12.84,20.7V534.5c0-6.97-13.21-8.81-33.02-8.81v201.06
					c19.81,0,33.02-8.81,33.02-19.45V601.36l11.01-6.54v49.02c0,20.18,3.67,24.58,34.12,60.17c10.64,12.47,18.34,18.34,26.05,18.34
					c8.44,0,18.34-8.07,25.32-19.45c-6.24-2.57-15.41-9.91-24.21-20.55c-22.75-27.15-29.72-35.96-29.72-44.03v-38.52
					c0-7.79-8.09-11.22-18.88-12.52l21.5-12.77c12.57,24.87,23.18,47.95,42.14,89.87c10.64,23.85,16.14,31.19,25.68,31.19
					c9.17,0,24.95-7.71,31.92-20.91C1407.09,670.98,1398.28,661.08,1390.94,647.87z"/>
			</g>
			<g>
				<path class="st1" d="M1695.25,530.13H1667c-10.67,0-19.89,4.91-33.88,14.34c12.54-14.85,19.57-26.92,19.57-32.68
					c0-6.77-10.98-12.28-24.78-16.55c2.78-2.16,5.54-4.33,8.27-6.56c38.89-31.92,55.03-59.44,55.03-77.05
					c0-10.64-9.91-16.14-23.48-16.14h-16.14c-7.25,0-15.21,3.12-24.29,8.45c11.79-11.47,16.22-19.95,16.22-25.32
					c0-6.97-5.5-14.31-25.68-22.38c-3.67,6.6-5.5,9.54-13.57,16.88c-31.55,28.98-90.26,63.47-128.05,75.21
					c-8.07,2.57-14.67,4.04-25.31,4.04c3.3,22.75,11.01,34.85,23.48,34.85c9.73,0,27.2-5.79,51.65-17.82
					c10.77,5.43,23.68,14.18,36.58,24.82c-18.5,10-38.69,19.08-59.98,26.76c-8.44,2.94-17.98,5.14-27.52,5.14
					c3.3,22.75,12.84,34.85,25.32,34.85c17.33,0,67.81-22.19,115.55-56.73c-40.99,47.58-75.54,71.8-112.98,88.29
					c-8.8,4.03-20.91,6.6-31.55,6.6c3.3,22.75,13.58,37.42,26.05,37.42c11.42,0,32.78-9.12,56.85-24.41
					c13.69,6.71,30.51,17.41,46.37,32.08c-28.05,16.47-62.57,28.38-105.42,37.83c-13.21,2.93-23.11,5.14-34.49,3.3
					c3.3,22.75,14.68,38.52,27.15,38.52c42.92,0,104.93-25.32,151.16-58.34c49.53-35.59,79.25-90.62,79.25-116.67
					C1718.36,537.83,1707.35,530.13,1695.25,530.13z M1576.01,457.48c-6.13-3.68-16.58-2.54-29.47,1.2
					c7-3.83,14.27-7.92,22.14-12.58c10.56-6.26,19.74-12.12,27.73-17.61h40.87c9.17,0,8.81,1.1,2.57,8.07
					c-11.46,12.61-26.09,25.04-43.08,36.77C1587.43,465.72,1579.98,459.87,1576.01,457.48z M1671.77,570.48
					c-10.6,19.66-23.34,36.11-38.69,50.09c-12.6-11.3-24.62-20.61-30.29-22.95c-6.61-2.69-16.86-1.89-29.57,1.51
					c1.54-1.13,3.07-2.17,4.62-3.34c14.45-10.86,27.21-22.05,37.93-32.65h49.76C1673.6,563.15,1675.07,564.61,1671.77,570.48z"/>
			</g>
			<g>
				<path class="st1" d="M1862.57,480.31c0-14.08-5.02-23.54-19.3-38.21l-9.65-10.03c-8.5-8.69-10.12-12.74-10.12-18.72
					c0-8.5,5.81-12.94,12.11-12.94c8.52,0,12.79,5.6,17.48,5.36c3.87-0.2,8.18-5.37,10.94-14.61c-8-5.51-17.79-10.23-31.76-10.23
					c-19.73,0-35.32,14.09-35.32,34.36c0,15.42,7.14,25.66,18.34,36.85l9.46,9.45c9.45,10.04,11.46,15.27,11,21.43
					c-0.53,7.03-6.23,11.54-13.31,11.83c-9.61,0.39-14.35-5.1-18.62-5.99c-5.12-1.07-9.31,4.95-12.1,13.38
					c7.29,9.33,21.44,14.54,33.22,14.54C1847.13,516.78,1862.57,503.66,1862.57,480.31z"/>
			</g>
			<g>
				<path class="st1" d="M1906.68,382.28h-20.91v127.05c0,3.37,2.73,6.11,6.11,6.11h20.91V388.38
					C1912.79,385.01,1910.05,382.28,1906.68,382.28z"/>
			</g>
			<g>
				<path class="st1" d="M1983.67,382.28h-15.52l-33.19,133.15h17.05c2.89,0,5.38-2.02,5.97-4.84l3.99-18.89h29.14l3.99,18.89
					c0.6,2.82,3.09,4.84,5.97,4.84h22.46l-31.58-126.67C1991.01,384.95,1987.59,382.28,1983.67,382.28z M1965.45,475.1l11.2-51.72
					l11,51.72H1965.45z"/>
			</g>
			<g>
				<path class="st1" d="M2147.87,388.38c0-3.37-2.73-6.11-6.11-6.11h-10.49l-34.35,69.47l-31.66-64.03
					c-1.65-3.33-5.04-5.44-8.76-5.44h-10.53v127.05c0,3.37,2.73,6.11,6.11,6.11h18.79v-78.16l21.42,42.85h9.27l21.23-42.85v72.05
					c0,3.37,2.73,6.11,6.11,6.11h18.98V388.38z"/>
			</g>
			<g>
				<path class="st1" d="M1892.75,567.54h-10.49l-34.35,69.47l-31.67-64.03c-1.65-3.33-5.04-5.44-8.76-5.44h-10.53v127.05
					c0,3.37,2.73,6.11,6.11,6.11h18.79v-78.16l21.42,42.85h9.26l21.23-42.85v72.05c0,3.37,2.73,6.11,6.11,6.11h18.98V573.65
					C1898.85,570.28,1896.12,567.54,1892.75,567.54z"/>
			</g>
			<g>
				<path class="st1" d="M1966.63,566.19c-28.56,0-41.69,19.49-41.69,62.72v9.07c0,44.2,12.93,64.07,41.69,64.07
					c29.14,0,41.88-19.87,41.88-64.07v-9.07C2008.51,585.49,1995.39,566.19,1966.63,566.19z M1980.53,663.06
					c0,12.35-4.82,19.11-13.89,19.11c-8.88,0-13.7-6.76-13.7-19.11v-58.08c0-12.35,4.82-18.92,13.7-18.92
					c9.07,0,13.89,6.57,13.89,18.92V663.06z"/>
			</g>
			<g>
				<path class="st1" d="M2095.99,642.04c12.73-5.22,18.91-16.41,18.91-33.2v-1.54c0-27.6-14.28-39.75-47.67-39.75h-32.62v127.05
					c0,3.37,2.73,6.11,6.11,6.11h20.92v-51.71h10.61c0,0,10.15,29.87,12.73,37.47c2.58,7.6,4.05,10.67,8.32,12.94
					c4.27,2.27,18.79,2.94,27.69-0.85c-4.56-5.45-7.65-11.74-13.79-26.91C2101.6,657.84,2095.99,642.04,2095.99,642.04z
					 M2087.88,614.44c0,11-6.18,16.59-16.6,16.59h-9.65v-45.35h9.65c10.23,0,16.6,5.22,16.6,16.41V614.44z"/>
			</g>
			<g>
				<path class="st1" d="M2200.03,585.67c3.37,0,6.11-2.73,6.11-6.11v-12.03h-64.46v127.05c0,3.37,2.73,6.11,6.11,6.11h58.35v-12.03
					c0-3.37-2.73-6.11-6.11-6.11h-31.72v-41.11h26.31c3.37,0,6.11-2.73,6.11-6.11v-12.03h-32.42v-37.64H2200.03z"/>
			</g>
		</g>
	</g>
</g>
</svg>
