<?xml version="1.0" encoding="utf-8"?>
<!-- Generator: Adobe Illustrator 25.2.0, SVG Export Plug-In . SVG Version: 6.00 Build 0)  -->
<svg version="1.1" id="圖層_1" xmlns="http://www.w3.org/2000/svg" xmlns:xlink="http://www.w3.org/1999/xlink" x="0px" y="0px"
	 viewBox="0 0 1080 1080" style="enable-background:new 0 0 1080 1080;" xml:space="preserve">
<style type="text/css">
	.st0{fill:#7B54A0;}
	.st1{fill:#040000;}
</style>
<g>
	<g>
		<path class="st0" d="M486.4,234.97c0-10.18-8.26-18.44-18.44-18.44c-10.18,0-18.44,8.26-18.44,18.44
			c0,10.18,8.26,18.44,18.44,18.44C478.15,253.41,486.4,245.15,486.4,234.97z"/>
		<path class="st0" d="M625.77,197.57c1.53-20.5,4.38-30.97,23.97-39.69c-8.05-25.77-16.78-49.44-41.94-56.35
			c-35.38-9.71-86.49-4.04-123.72,13.45c-60.86,28.6-84.62,94.97-71.33,141.97c6.45-36.42,26.58-74.07,71-95.06
			c45.04-21.28,101.71-22.29,142.7-10.22c-15.26,6.08-37.25,20.06-43.69,48.15c-4.76,20.76-1.91,38.19-10.56,55.72
			c-8.99,18.21-30.75,21.02-47.85,17.65c15.57,16.32,59.1,22.21,81.35-0.04c16.13-16.13,17.96-38.95,19.07-59.32
			c79.8,16.5,78.72,105.07,44.02,191.97c-11.88-32.01-43.74-67.17-87.67-67.17c-37.18,0-70.03,12.49-116.85,80.03h46.16
			c12.92,0,20.1-4.92,24.7-12.1c17.03-26.59,33.61-37.84,59.7-37.84c30.38,0,50.52,20.32,65.75,49.94h2.86h9.11h23.46
			c13.53,0,21.55-7.29,25.16-17.18c5.72-15.68,8.69-37.41,10.54-53.68c1.88-16.49,11.1-18.93,20.69-20.99
			C741.23,233.98,676.08,201.91,625.77,197.57z"/>
		<path class="st0" d="M403.83,287.4c-22.41,0-39.26-18.9-39.26-41.93c0-34.7,22.14-51.59,36.7-74.34
			c7.13-11.14,10.31-23.23,5.06-34.18c-7.4-15.43-31.9-22.26-52.33-21.1c16.29,42.31-26.4,64.67-26.4,120.88
			c0,63.81,58.54,81.86,94.8,63.01c8.11,36.87-51.99,98.83-73.5,118.95h51.36c12.07,0,21.12-5.92,26.26-13.98
			c39.81-62.5,41.13-97.48,15.38-137.8C434.99,277.92,421.88,287.4,403.83,287.4z"/>
	</g>
	<g>
		<g>
			<path class="st1" d="M305.53,910.4c5.33,0,8,3.5,10.93,3.35c2.42-0.12,5.12-3.36,6.84-9.14c-5.01-3.45-11.12-6.4-19.86-6.4
				c-12.34,0-22.09,8.81-22.09,21.49c0,9.64,4.47,16.05,11.47,23.05l5.91,5.91c5.91,6.28,7.17,9.55,6.88,13.4
				c-0.33,4.4-3.9,7.22-8.32,7.4c-6.01,0.25-8.97-3.19-11.64-3.74c-3.21-0.67-5.82,3.1-7.56,8.37c4.56,5.83,13.41,9.09,20.77,9.09
				c13.88,0,23.53-8.21,23.53-22.81c0-8.81-3.14-14.72-12.07-23.89l-6.04-6.27c-5.31-5.43-6.33-7.97-6.33-11.71
				C297.95,913.18,301.58,910.4,305.53,910.4z"/>
		</g>
		<g>
			<path class="st1" d="M349.97,899.06H336.9v79.45c0,2.11,1.71,3.82,3.82,3.82h13.08v-79.45
				C353.79,900.77,352.08,899.06,349.97,899.06z"/>
		</g>
		<g>
			<path class="st1" d="M398.12,899.06h-9.7l-20.76,83.27h10.66c1.8,0,3.36-1.26,3.74-3.03l2.5-11.82h18.22l2.5,11.82
				c0.37,1.77,1.93,3.03,3.74,3.03h14.04l-19.75-79.22C402.71,900.73,400.57,899.06,398.12,899.06z M386.73,957.11l7-32.35
				l6.88,32.35H386.73z"/>
		</g>
		<g>
			<path class="st1" d="M496.99,899.06h-6.56l-21.48,43.44l-19.8-40.04c-1.03-2.08-3.15-3.4-5.48-3.4h-6.58v79.45
				c0,2.11,1.71,3.82,3.82,3.82h11.75v-48.88l13.39,26.79h5.79l13.28-26.79v45.06c0,2.11,1.71,3.82,3.82,3.82h11.87v-79.45
				C500.81,900.77,499.1,899.06,496.99,899.06z"/>
		</g>
		<g>
			<path class="st1" d="M605.93,899.06h-6.56l-21.48,43.44l-19.8-40.04c-1.03-2.08-3.15-3.4-5.48-3.4h-6.58v79.45
				c0,2.11,1.71,3.82,3.82,3.82h11.75v-48.88l13.4,26.79h5.79l13.28-26.79v45.06c0,2.11,1.71,3.82,3.82,3.82h11.87v-79.45
				C609.75,900.77,608.04,899.06,605.93,899.06z"/>
		</g>
		<g>
			<path class="st1" d="M652.14,898.22c-17.86,0-26.07,12.19-26.07,39.22v5.67c0,27.64,8.09,40.07,26.07,40.07
				c18.22,0,26.19-12.43,26.19-40.07v-5.67C678.33,910.28,670.12,898.22,652.14,898.22z M660.82,958.8c0,7.72-3.01,11.95-8.69,11.95
				c-5.55,0-8.57-4.23-8.57-11.95v-36.32c0-7.72,3.01-11.83,8.57-11.83c5.67,0,8.69,4.11,8.69,11.83V958.8z"/>
		</g>
		<g>
			<path class="st1" d="M733.03,945.65c7.96-3.26,11.83-10.26,11.83-20.76v-0.96c0-17.26-8.93-24.86-29.81-24.86h-20.4v79.45
				c0,2.11,1.71,3.82,3.82,3.82h13.08v-32.34h6.64c0,0,6.35,18.68,7.96,23.43c1.61,4.75,2.53,6.67,5.2,8.09
				c2.67,1.42,11.75,1.84,17.31-0.53c-2.85-3.41-4.78-7.34-8.63-16.83C736.54,955.54,733.03,945.65,733.03,945.65z M727.96,928.39
				c0,6.88-3.86,10.38-10.38,10.38h-6.03V910.4h6.03c6.4,0,10.38,3.26,10.38,10.26V928.39z"/>
		</g>
		<g>
			<path class="st1" d="M761.61,978.52c0,2.11,1.71,3.82,3.82,3.82h36.49v-7.52c0-2.11-1.71-3.82-3.82-3.82h-19.84v-25.71h16.46
				c2.11,0,3.82-1.71,3.82-3.82v-7.52h-20.28V910.4h19.84c2.11,0,3.82-1.71,3.82-3.82v-7.52h-40.31V978.52z"/>
		</g>
		<g>
			<g>
				<path class="st1" d="M345.81,708.92c-6.24-3.78-19.73-12.1-33.28-21.28c6.19-2.99,10.88-8.18,10.88-14.05v-28.03
					c1.29,2.78,2.94,5.48,4.73,7.53c2.84,2.84,10.1,3.79,20.51,3.79c9.78,0,17.67-5.99,17.67-15.77v-40.38
					c0-9.78-5.99-15.77-15.77-15.77c-1.82,0-4.93,0-8.53,0c5.31-1.67,10.82-4.14,12.63-6.62c3.15-4.73,5.99-19.56,5.99-28.71
					c0-8.2-4.73-12.93-12.62-12.93h-24.76c-0.83-5.44-11.61-6.94-21.93-6.94v114.79c-2.25-4.14-5.59-9.03-10.1-14.15
					c-6.63-7.57-9.78-10.1-13.56-10.1c-3.47,0-11.04,3.47-15.77,5.99c1.8,2.2,3.59,4.58,5.35,7c-8.7,3.15-17.13,5.53-24.6,6.96
					v-22.48h32.5h13.25h6.63v-70.98c0-5.99-9.15-7.57-19.88-7.57v7.26h-18.47c4.45-1.28,8.13-2.6,9.32-3.79
					c3.79-2.84,7.57-11.99,7.57-16.41c0-3.79-13.25-8.52-20.51-8.52c0,4.1-1.26,9.46-3.15,13.88c-2.59,5.97-5.19,11.19-7.78,14.83
					h-1.75c-0.34-5.71-9.29-7.26-19.81-7.26v102.4c-3.34-0.1-6.33-0.27-9.03-0.54c3.76-13.31,5.56-27.39,5.56-32.45
					c0-4.42-5.99-6.94-20.82-9.47c0,1.89,0,4.1-0.31,5.99c-0.95,5.05-1.89,5.36-6.63,6.94c-3.99,1.27-8.58,2.31-12.92,3.16
					c8.15-7.7,18.47-17.63,30.59-28.4c7.26-6.31,7.89-6.94,7.89-10.41c0-6.62-6.31-21.77-9.78-21.77c-1.58,0-3.79,0.63-5.68,1.89
					c-4.01,2.41-8.4,4.79-11.78,6.81c11.18-12.58,20.3-27.57,20.3-32.36c0-4.42-8.52-10.73-19.88-13.25
					c-0.95,4.1-2.21,6.62-4.42,9.78c-14.51,22.4-24.93,35.65-36.6,47.01c-3.79,3.79-7.57,6.31-13.57,9.15
					c4.42,10.73,10.73,16.72,17.67,16.72c4.73,0,11.04-5.36,28.08-23.66c4.37-1.22,9.21-2.12,13.96-2.71
					c-5.55,5.25-12.24,11.65-19.96,18.48c-14.51,12.93-25.55,23.98-25.55,27.76c0,5.36,11.04,16.72,15.46,16.72
					c3.47,0,12.62-1.58,17.04-3.15c6.73-2.42,8.88-4.42,12.69-10.62c-6.06,18.18-9.09,24.26-21.52,30.18
					c-6.63,3.15-17.04,6.94-30.6,9.46c2.84,12.62,9.15,23.35,15.77,23.35c9.47,0,35.65-11.67,44.48-22.08
					c2.67-3.13,4.98-7.5,6.96-12.43c1.6,8.55,5.48,14.96,13.55,14.96c0.92,0,2.01-0.08,3.2-0.2c-1.37,0.69-2.72,1.53-4.15,2.72
					c-16.4,13.88-41.33,29.66-58.36,39.75c-7.57,4.73-21.77,9.78-30.6,11.36c2.21,12.62,10.73,23.03,18.61,23.03
					c5.99,0,23.03-9.15,37.23-19.88c3.82-2.83,7.75-5.61,11.69-8.36c-6.67,7.63-8.22,13.25-8.22,20.67v68.46
					c-14.22-0.01-22.36-0.17-35.97-2.84c0,20.51,2.84,31.55,18.3,31.55c26.18,0,47.95-3.47,76.03-11.67
					c8.83-2.84,13.25-4.73,15.77-7.26c2.46-2.47,3.32-4.74,3.62-10.94c15.52,21.26,22.88,29.87,40.87,29.87
					c11.67,0,26.18-2.84,38.8-9.46c5.68-2.52,8.83-6.94,8.83-11.99c0-5.36-3.78-14.2-8.83-22.08c-2.21,3.15-6.31,6.63-11.67,9.46
					c-11.99,6.62-20.51,9.15-29.34,9.15c-3.25,0-6.84-3.42-12.19-9.27c5.14,2.16,10.81,3.59,13.76,3.59
					c13.56,0,32.5-18.3,32.5-26.18c0-4.42-5.36-9.47-17.35-16.09c-1.64,3.72-4.11,7.74-6.94,11.63v-35.92
					c0-7.41-1.55-13.03-8.22-20.67c3.94,2.75,7.87,5.53,11.69,8.36c14.2,10.41,31.23,19.88,37.23,19.88
					c7.89,0,16.4-10.41,18.61-23.03C366,718.39,354.64,714.29,345.81,708.92z M342.65,631c0,3.47-1.26,4.73-4.73,4.73h-14.51v-30.6
					h14.51c3.47,0,4.73,1.26,4.73,4.73V631z M337.29,561.59c0,2.84-0.63,7.57-1.58,10.41c-1.92,5.77-3.39,9.39-5.19,12.93
					c-2.59,0-5.01,0-7.11,0v-28.08h9.15C336.03,556.86,337.29,558.12,337.29,561.59z M240.44,597.56v-8.83h34.7v8.83H240.44z
					 M275.14,573.58h-34.7v-8.2h34.7V573.58z M259.05,658.13c5.68-1.89,10.1-4.1,12.3-5.99c1.56-1.39,2.52-4.63,2.78-8.92
					c1.24,1.88,2.42,3.71,3.53,5.45c3.47,5.36,6.94,11.67,8.83,17.04c5.83-1.94,11.39-4.36,14.83-6.82v20.94
					c-5.06-3.65-9.84-7.27-13.88-10.65c-3.79-3.15-6.94-4.42-11.67-4.42h-40.86C243.13,663.03,252.58,660.42,259.05,658.13z
					 M216.14,755.3v-10.1h75.72v10.1H216.14z M291.86,729.43h-75.72v-9.46h75.72V729.43z M237.91,687.15
					c2.01-1.72,3.95-3.78,5.83-5.92c-0.45,4.49-0.78,9.31-0.78,14.44v4.73h-22.67C226.56,695.99,232.54,691.59,237.91,687.15z
					 M217.72,802.42v-26.61h20.82c7.88,4.4,14.23,8.5,21.3,16.22C243.81,797.21,230.31,800.58,217.72,802.42z M294.38,791.27
					c-1.89,0-5.05-1.26-12.3-7.89c-4.1-3.79-11.36-5.05-29.02-7.57h60.85C306.92,784.33,298.73,791.27,294.38,791.27z
					 M265.04,700.41v-4.42c0-5.29-0.33-10.21-0.79-14.77c1.88,2.15,3.82,4.21,5.83,5.93c5.37,4.44,11.36,8.83,17.62,13.25H265.04z"
					/>
			</g>
			<g>
				<path class="st1" d="M666.86,766.03c-23.98-42.59-35.02-78.87-53-102.53c-4.1-5.68-15.14-8.83-34.7-11.99h71.62
					c8.83,0,12.62-11.36,12.62-27.76H563.39V608.6h56.47c7.89,0,12.62-10.41,12.62-25.24h-69.09v-15.14h72.25
					c8.52,0,12.62-10.1,12.62-27.13h-84.87v-16.72c0-5.99-13.25-7.57-30.29-7.57v24.29h-84.87c0,17.04,4.1,27.13,12.62,27.13h72.25
					v15.14h-69.09c0,14.83,4.73,25.24,12.62,25.24h56.47v15.14H433.09c0,16.41,3.78,27.76,12.62,27.76h71.62
					c-19.56,2.84-30.92,6.31-35.02,11.99c-17.67,23.66-29.02,60.26-52.69,102.53c-6.31,11.36-13.88,19.88-20.19,23.03
					c5.99,11.36,19.56,17.98,27.45,17.98c8.2,0,12.93-6.31,22.09-26.82c12.45-27.54,20.71-45.61,28.74-62.15h5.02
					c3.47,0,4.73,1.26,4.73,4.73v35.02c0,6.94-5.99,14.51-25.55,37.86c-7.26,8.83-15.14,15.46-20.82,17.67
					c5.99,9.78,14.51,16.72,21.77,16.72c6.63,0,12.93-4.42,22.4-15.77c26.18-30.6,29.34-34.39,29.34-51.74v-51.42
					c0-11.36-3.79-15.77-12.93-15.77c-4.38,0-12.3,4.75-17.62,9.91c4.39-8.74,9.01-17.63,14.47-27.9
					c5.68-10.41,16.09-18.93,25.87-25.87h27.76c9.78,6.94,20.19,15.46,25.87,25.87c0.52,0.98,1.01,1.91,1.52,2.87
					c-6.51,3.86-12.45,7.28-16.03,9.43c-6.06,3.59-9.52,9-11.04,17.8v-38.94c0-5.99-11.36-7.57-28.39-7.57v172.89
					c17.04,0,28.39-7.57,28.39-16.72v-91.11l9.46-5.62v42.15c0,17.35,3.16,21.14,29.34,51.74c9.15,10.73,15.77,15.77,22.4,15.77
					c7.26,0,15.77-6.94,21.77-16.72c-5.36-2.21-13.25-8.52-20.82-17.67c-19.56-23.35-25.55-30.92-25.55-37.86V724.7
					c0-6.7-6.96-9.65-16.23-10.77l18.49-10.99c10.81,21.39,19.93,41.23,36.24,77.28c9.15,20.51,13.88,26.82,22.08,26.82
					c7.89,0,21.45-6.63,27.45-17.98C680.75,785.9,673.17,777.38,666.86,766.03z"/>
			</g>
			<g>
				<path class="st1" d="M928.53,664.78h-24.29c-9.18,0-17.1,4.22-29.13,12.33c10.79-12.77,16.82-23.14,16.82-28.1
					c0-5.82-9.44-10.56-21.31-14.23c2.39-1.85,4.77-3.72,7.11-5.64c33.44-27.45,47.32-51.11,47.32-66.25
					c0-9.15-8.52-13.88-20.19-13.88h-13.88c-6.24,0-13.08,2.69-20.89,7.26c10.14-9.86,13.95-17.15,13.95-21.78
					c0-5.99-4.73-12.3-22.08-19.24c-3.15,5.68-4.73,8.2-11.67,14.51c-27.13,24.92-77.61,54.58-110.11,64.67
					c-6.94,2.21-12.62,3.47-21.77,3.47c2.84,19.56,9.47,29.97,20.19,29.97c8.37,0,23.39-4.98,44.42-15.33
					c9.26,4.67,20.36,12.19,31.45,21.34c-15.91,8.6-33.27,16.4-51.58,23.01c-7.26,2.52-15.46,4.42-23.66,4.42
					c2.84,19.56,11.04,29.97,21.77,29.97c14.91,0,58.31-19.08,99.36-48.78c-35.24,40.92-64.95,61.74-97.15,75.92
					c-7.57,3.47-17.98,5.68-27.13,5.68c2.84,19.56,11.67,32.18,22.4,32.18c9.82,0,28.19-7.84,48.88-20.99
					c11.77,5.77,26.23,14.97,39.87,27.58c-24.12,14.16-53.8,24.41-90.65,32.53c-11.36,2.52-19.88,4.42-29.66,2.84
					c2.84,19.56,12.62,33.13,23.35,33.13c36.91,0,90.23-21.77,129.98-50.16c42.59-30.6,68.14-77.92,68.14-100.32
					C948.41,671.4,938.94,664.78,928.53,664.78z M826,602.31c-5.27-3.16-14.25-2.19-25.34,1.03c6.02-3.29,12.27-6.81,19.03-10.81
					c9.08-5.38,16.98-10.42,23.85-15.14h35.15c7.89,0,7.57,0.95,2.21,6.94c-9.86,10.84-22.44,21.53-37.04,31.61
					C835.82,609.4,829.42,604.36,826,602.31z M908.34,699.48c-9.11,16.91-20.07,31.06-33.27,43.08
					c-10.84-9.72-21.17-17.73-26.04-19.73c-5.68-2.31-14.51-1.63-25.43,1.3c1.33-0.97,2.64-1.87,3.97-2.88
					c12.42-9.34,23.4-18.96,32.61-28.08h42.79C909.92,693.17,911.18,694.43,908.34,699.48z"/>
			</g>
		</g>
	</g>
</g>
</svg>
